<svg width="18" height="14" viewBox="0 0 18 14" fill="none" xmlns="http://www.w3.org/2000/svg">
<path d="M0.226285 7.48572L6.39771 13.6571L7.48799 12.5669L1.31657 6.39544L0.226285 7.48572ZM6.39771 0.224016L0.226285 6.39544L1.31657 7.48572L7.48799 1.3143L6.39771 0.224016ZM0.771426 7.71201L17.2286 7.71201L17.2286 6.16915L0.771426 6.16915L0.771426 7.71201ZM6.39771 13.6571C6.69599 13.9554 7.18971 13.9554 7.48799 13.6571C7.78628 13.3589 7.78628 12.8651 7.48799 12.5669L6.39771 13.6571ZM7.48799 1.3143C7.78628 1.01601 7.78628 0.522302 7.48799 0.224016C7.18971 -0.0742693 6.696 -0.0742693 6.39771 0.224016L7.48799 1.3143ZM17.2286 7.71201C17.6503 7.71201 18 7.36229 18 6.94058C18 6.51887 17.6503 6.16915 17.2286 6.16915L17.2286 7.71201ZM0.771426 6.94058L0.226285 6.39544C0.0822856 6.53944 -1.28263e-06 6.73487 -1.30061e-06 6.94058C-1.31859e-06 7.14629 0.0822855 7.34172 0.226285 7.48572L0.771426 6.94058Z" fill="#17181C"/>
</svg>
