<svg width="20" height="20" viewBox="0 0 20 20" fill="none" xmlns="http://www.w3.org/2000/svg">
<path d="M15.2735 18.7499C14.511 18.7499 13.4399 18.4741 11.836 17.578C9.88562 16.4843 8.37702 15.4745 6.43718 13.5397C4.56687 11.6706 3.65671 10.4604 2.38288 8.14246C0.94382 5.52527 1.18913 4.1534 1.46335 3.56707C1.78991 2.86629 2.27195 2.44715 2.89499 2.03113C3.24888 1.79927 3.62338 1.60051 4.01374 1.43738C4.0528 1.42058 4.08913 1.40457 4.12156 1.39012C4.31491 1.30301 4.60788 1.17137 4.97898 1.31199C5.22663 1.40496 5.44773 1.59519 5.79382 1.93699C6.50359 2.63699 7.47351 4.19598 7.83132 4.9616C8.07156 5.47762 8.23054 5.81824 8.23093 6.20027C8.23093 6.64754 8.00593 6.99246 7.73288 7.36473C7.68171 7.43465 7.63093 7.50144 7.58171 7.56629C7.28445 7.95691 7.21921 8.0698 7.26218 8.27137C7.34929 8.67644 7.9989 9.8823 9.06648 10.9475C10.1341 12.0128 11.3051 12.6214 11.7118 12.7081C11.9219 12.753 12.0372 12.685 12.4403 12.3772C12.4981 12.3331 12.5575 12.2874 12.6196 12.2417C13.036 11.9319 13.3649 11.7128 13.8016 11.7128H13.804C14.1841 11.7128 14.5094 11.8776 15.0485 12.1495C15.7516 12.5042 17.3575 13.4616 18.0618 14.1721C18.4044 14.5175 18.5954 14.7378 18.6887 14.985C18.8294 15.3573 18.6969 15.6491 18.6106 15.8444C18.5962 15.8768 18.5802 15.9124 18.5634 15.9518C18.3989 16.3415 18.199 16.7152 17.9661 17.0682C17.5509 17.6893 17.1301 18.1702 16.4278 18.4971C16.0672 18.6678 15.6725 18.7542 15.2735 18.7499Z" fill="#4D4D4D"/>
</svg>
