<svg width="36" height="36" viewBox="0 0 36 36" fill="none" xmlns="http://www.w3.org/2000/svg">
<path d="M28.5006 14.0143V13.5312C28.5006 11.0323 26.4171 8.97821 23.8824 8.97821H22.833C22.0252 8.97826 21.2045 9.37583 20.4482 10.0455C19.6966 10.7111 19.0747 11.5898 18.6814 12.4014C18.5571 12.6576 18.2949 12.8213 18.0068 12.8219C17.7187 12.8226 17.4558 12.66 17.3304 12.4043C16.9318 11.5913 16.3076 10.7121 15.5537 10.0464C14.7951 9.37671 13.971 8.97826 13.1572 8.97821H12.1176C9.58196 8.97821 7.49939 11.0233 7.49939 13.5312V14.0143C7.49946 15.0144 7.79344 15.94 8.33499 16.6291L8.44725 16.7638C9.62553 18.115 12.1368 20.7288 14.3687 23.0193C15.4812 24.161 16.5195 25.2172 17.2796 25.9882C17.5539 26.2665 17.7921 26.5078 17.9844 26.7023C18.2039 26.48 18.484 26.1972 18.8092 25.8669C19.6382 25.025 20.7643 23.8781 21.9525 22.6574C22.2391 22.3629 22.7139 22.3528 23.0126 22.6353C23.3113 22.9179 23.3206 23.3859 23.0341 23.6804C21.8433 24.9037 20.7153 26.0534 19.885 26.8967C19.4699 27.3182 19.1292 27.6635 18.8922 27.9033C18.7737 28.0233 18.6809 28.1168 18.6179 28.1805C18.5864 28.2123 18.5619 28.2363 18.5457 28.2527C18.5376 28.2608 18.5322 28.2678 18.5281 28.2719C18.5263 28.2738 18.5243 28.2747 18.5232 28.2758L18.5222 28.2777C18.3813 28.42 18.1871 28.4999 17.9854 28.5C17.7838 28.5001 17.5905 28.4206 17.4494 28.2787L17.4436 28.2729C17.4398 28.2691 17.4344 28.263 17.427 28.2556C17.4123 28.2407 17.3902 28.2189 17.3616 28.1901C17.3044 28.1324 17.2206 28.047 17.1127 27.938C16.8968 27.7198 16.5855 27.405 16.2048 27.0189C15.4434 26.2465 14.4023 25.1877 13.2871 24.0432C11.0634 21.7612 8.52174 19.1165 7.31099 17.7281C6.42486 16.7144 6.00007 15.3712 6 14.0143V13.5312C6 10.2051 8.75569 7.5 12.1176 7.5H13.1572C14.4724 7.50005 15.6377 8.13627 16.5533 8.94453C17.1102 9.43618 17.5981 10.0136 18.002 10.6046C18.4038 10.0134 18.8907 9.43698 19.4457 8.94549C20.3586 8.13713 21.5219 7.50005 22.833 7.5H23.8824C27.2452 7.5 30 10.2159 30 13.5312V14.0143C30 14.7881 29.8653 15.5408 29.5881 16.2355C29.4365 16.6153 29.0011 16.8026 28.6158 16.6532C28.2307 16.5036 28.0416 16.0744 28.1931 15.6946C28.3956 15.1873 28.5006 14.6198 28.5006 14.0143Z" fill="#00529A"/>
<path d="M22.4241 15.1196C22.7142 15.1009 22.9895 15.2488 23.1299 15.4998L25.0051 18.8527H28.7809C29.1949 18.8528 29.5306 19.1837 29.5306 19.5918C29.5306 19.9999 29.1949 20.3308 28.7809 20.3309H24.5629C24.2899 20.3309 24.0379 20.1845 23.906 19.9488L22.5881 17.5929L21.0224 21.5367C20.9172 21.8013 20.6674 21.9833 20.3801 22.0045C20.0925 22.0255 19.8179 21.8814 19.6743 21.6349L17.6507 18.1627H15.3362C14.9222 18.1627 14.5865 17.8318 14.5865 17.4236C14.5866 17.0154 14.9222 16.6845 15.3362 16.6845H18.0851C18.3535 16.6845 18.6015 16.8264 18.7352 17.0559L20.1956 19.5629L21.775 15.5873C21.881 15.3205 22.1341 15.1384 22.4241 15.1196Z" fill="#00529A"/>
</svg>
