<svg width="60" height="60" viewBox="0 0 60 60" fill="none" xmlns="http://www.w3.org/2000/svg">
<path d="M47.6953 15H21.6797C17.9906 15 15 17.9906 15 21.6797V47.6953C15 51.3844 17.9906 54.375 21.6797 54.375H47.6953C51.3844 54.375 54.375 51.3844 54.375 47.6953V21.6797C54.375 17.9906 51.3844 15 47.6953 15Z" stroke="black" stroke-width="3.75" stroke-linejoin="round"/>
<path d="M44.9414 15L45 12.1875C44.9951 10.4485 44.3021 8.78221 43.0724 7.55258C41.8428 6.32294 40.1765 5.62995 38.4375 5.625H13.125C11.1377 5.63087 9.23344 6.42294 7.82819 7.82819C6.42294 9.23344 5.63087 11.1377 5.625 13.125V38.4375C5.62995 40.1765 6.32294 41.8428 7.55258 43.0724C8.78221 44.3021 10.4485 44.9951 12.1875 45H15" stroke="black" stroke-width="3.75" stroke-linecap="round" stroke-linejoin="round"/>
</svg>
