<svg width="24" height="24" viewBox="0 0 24 24" fill="none" xmlns="http://www.w3.org/2000/svg">
<path fill-rule="evenodd" clip-rule="evenodd" d="M17.488 4.42993C17.5628 4.49406 17.6243 4.57231 17.6689 4.6602C17.7134 4.74808 17.7402 4.84389 17.7478 4.94215C17.7553 5.04041 17.7434 5.13918 17.7127 5.23283C17.682 5.32648 17.6332 5.41316 17.569 5.48793L11.988 11.9999L17.569 18.5119C17.6339 18.5866 17.6834 18.6734 17.7146 18.7673C17.7457 18.8611 17.7581 18.9602 17.7508 19.0589C17.7435 19.1575 17.7168 19.2538 17.6722 19.3421C17.6276 19.4303 17.566 19.5089 17.4908 19.5733C17.4157 19.6377 17.3286 19.6865 17.2345 19.7171C17.1405 19.7477 17.0413 19.7593 16.9427 19.7514C16.8441 19.7434 16.748 19.7161 16.66 19.6709C16.5721 19.6257 16.4939 19.5635 16.43 19.4879L10.43 12.4879C10.3136 12.352 10.2495 12.1789 10.2495 11.9999C10.2495 11.8209 10.3136 11.6479 10.43 11.5119L16.43 4.51193C16.4942 4.43711 16.5724 4.37566 16.6603 4.33109C16.7482 4.28652 16.844 4.25971 16.9422 4.25219C17.0405 4.24467 17.1393 4.25658 17.2329 4.28725C17.3266 4.31792 17.4133 4.36675 17.488 4.43094M13.488 4.43094C13.5628 4.49506 13.6243 4.57331 13.6689 4.6612C13.7134 4.74908 13.7403 4.84489 13.7478 4.94315C13.7553 5.04141 13.7434 5.14018 13.7127 5.23383C13.682 5.32748 13.6332 5.41416 13.569 5.48893L7.98803 11.9999L13.569 18.5119C13.6369 18.5861 13.6892 18.6731 13.7228 18.7679C13.7564 18.8627 13.7706 18.9632 13.7645 19.0636C13.7585 19.1639 13.7323 19.2621 13.6876 19.3521C13.6429 19.4422 13.5805 19.5223 13.5042 19.5878C13.4278 19.6532 13.3391 19.7026 13.2433 19.7331C13.1475 19.7636 13.0466 19.7745 12.9464 19.7652C12.8463 19.7559 12.7491 19.7266 12.6606 19.6789C12.572 19.6313 12.494 19.5663 12.431 19.4879L6.43103 12.4879C6.31456 12.352 6.25055 12.1789 6.25055 11.9999C6.25055 11.8209 6.31456 11.6479 6.43103 11.5119L12.431 4.51193C12.5605 4.36112 12.7446 4.26787 12.9428 4.25269C13.141 4.2375 13.3371 4.30161 13.488 4.43094Z" fill="#32CC99"/>
</svg>
