<svg width="24" height="24" viewBox="0 0 24 24" fill="none" xmlns="http://www.w3.org/2000/svg">
<path fill-rule="evenodd" clip-rule="evenodd" d="M6.51199 4.43002C6.66307 4.30081 6.85926 4.23687 7.05746 4.25225C7.25566 4.26762 7.43964 4.36106 7.56899 4.51202L13.569 11.512C13.6855 11.6479 13.7495 11.821 13.7495 12C13.7495 12.179 13.6855 12.3521 13.569 12.488L7.56899 19.488C7.4375 19.6316 7.25534 19.7184 7.061 19.7301C6.86667 19.7419 6.67539 19.6776 6.52761 19.5508C6.37983 19.4241 6.28712 19.2448 6.26909 19.051C6.25106 18.8571 6.30912 18.6638 6.43099 18.512L12.012 12L6.43099 5.48802C6.30154 5.33719 6.23726 5.14115 6.25226 4.94296C6.26726 4.74478 6.36032 4.56064 6.51099 4.43102M10.511 4.43102C10.5858 4.36689 10.6726 4.31814 10.7662 4.28755C10.8599 4.25696 10.9587 4.24514 11.057 4.25275C11.1552 4.26037 11.251 4.28727 11.3389 4.33193C11.4267 4.37659 11.5049 4.43812 11.569 4.51302L17.569 11.513C17.6855 11.6489 17.7495 11.822 17.7495 12.001C17.7495 12.18 17.6855 12.3531 17.569 12.489L11.569 19.489C11.4396 19.6402 11.2554 19.7338 11.057 19.7491C10.8586 19.7645 10.6622 19.7004 10.511 19.571C10.3598 19.4416 10.2662 19.2574 10.2509 19.059C10.2355 18.8606 10.2996 18.6642 10.429 18.513L16.013 12L10.432 5.48802C10.3027 5.33707 10.2386 5.14095 10.2537 4.94276C10.2689 4.74456 10.3622 4.5605 10.513 4.43102" fill="#32CC99"/>
</svg>
