<svg width="45" height="51" viewBox="0 0 45 51" fill="none" xmlns="http://www.w3.org/2000/svg">
<path d="M23.4834 0.369141C23.5131 0.388849 23.5531 0.428357 23.6025 0.467773C23.7014 0.556449 23.8599 0.684103 24.0576 0.851562C24.4531 1.19646 25.0266 1.68974 25.7188 2.31055C27.1129 3.55214 29.0311 5.3356 31.1074 7.4541C35.2405 11.6716 40.1352 17.3575 42.8643 23.0039L40.1943 24.2852C37.6828 19.0822 33.065 13.6819 28.9912 9.52344C26.9742 7.45419 25.1056 5.71983 23.751 4.50781C23.2649 4.07252 22.8436 3.70768 22.5059 3.41602C21.9453 3.89727 21.1564 4.58818 20.2207 5.4541C18.2728 7.23769 15.6921 9.75061 13.1016 12.6279C10.511 15.5152 7.95022 18.7474 6.05176 21.9795C4.14342 25.2313 2.9766 28.3548 2.97656 31.0449L2.9834 31.5762C3.12298 37.0207 5.41036 41.0359 8.83008 43.7471C12.3996 46.5751 17.3039 48.043 22.5049 48.043V51C16.7798 51 11.1828 49.3932 6.98047 46.0625C2.74082 42.7039 0.01242 37.6619 0.00976562 31.0547H0C5.9405e-05 27.5861 1.46326 23.9302 3.49023 20.4912C5.52712 17.0226 8.22689 13.6331 10.8867 10.667C13.5565 7.69105 16.2165 5.119 18.2139 3.28613C19.2125 2.36979 20.0426 1.64024 20.626 1.1377C20.9226 0.881526 21.1504 0.694593 21.3086 0.556641C21.3877 0.497516 21.4468 0.44762 21.4863 0.408203C21.5061 0.388532 21.5263 0.369141 21.5361 0.369141C21.5459 0.359405 21.5459 0.359375 21.5459 0.359375C21.5513 0.365893 21.8646 0.746586 22.4854 1.50195L22.4863 1.50391C22.4923 1.49667 22.4989 1.48973 22.5049 1.48242H22.5146C23.1329 0.730059 23.4463 0.349372 23.4541 0.339844C23.4544 0.34954 23.4735 0.359444 23.4834 0.369141ZM36.541 43.4668C37.1639 42.9395 38.0994 43.0294 38.6221 43.6484C39.156 44.2692 39.0672 45.2053 38.4443 45.7275V45.7373L38.4395 45.7314C34.198 49.2861 28.4156 51 22.5146 51V48.043C27.8838 48.043 32.9369 46.4763 36.5361 43.4609L36.541 43.4668ZM27.459 39.6777L28.8633 40.1406C28.6655 40.7023 28.1608 41.1061 27.5576 41.1455C26.9545 41.1849 26.391 40.8593 26.124 40.3271L27.4492 39.667L27.459 39.6777ZM32.2842 23.4082C32.8872 23.3688 33.4507 23.6937 33.7178 24.2256L32.3994 24.8818H32.4004L33.7178 24.2256L38.252 33.2627H43.5166C44.3373 33.2627 44.9999 33.9224 45 34.7402C45 35.5581 44.3373 36.2188 43.5166 36.2188H37.3369C36.7733 36.2188 36.2589 35.903 36.0117 35.4004L32.6709 28.7422L28.8633 40.1309L27.4561 39.6631L26.124 40.3271L21.5898 31.291H16.3252C15.5046 31.291 14.8419 30.6313 14.8418 29.8135C14.8418 28.9956 15.5045 28.335 16.3252 28.335H22.5049C23.0685 28.335 23.5829 28.6508 23.8301 29.1533L27.1738 35.8184L30.9873 24.416L30.9785 24.4131C31.1763 23.8514 31.681 23.4476 32.2842 23.4082ZM42.874 23.0137C43.23 23.7429 42.9232 24.6296 42.1816 24.9844C41.45 25.3391 40.5601 25.034 40.2041 24.2949L42.874 23.0137ZM21.5557 0.339844C22.1094 -0.113446 22.9005 -0.113446 23.4443 0.339844L22.5049 1.48242H22.4951L21.5557 0.339844Z" fill="#00529A"/>
</svg>
