<svg width="36" height="36" viewBox="0 0 36 36" fill="none" xmlns="http://www.w3.org/2000/svg">
<mask id="mask0_704_4627" style="mask-type:luminance" maskUnits="userSpaceOnUse" x="0" y="0" width="36" height="36">
<path d="M18 36C27.9411 36 36 27.9411 36 18C36 8.05887 27.9411 0 18 0C8.05887 0 0 8.05887 0 18C0 27.9411 8.05887 36 18 36Z" fill="white"/>
</mask>
<g mask="url(#mask0_704_4627)">
<path d="M18 -1C7.51 -1 -1 7.51 -1 18H1C1 8.61 8.61 1 18 1V-1ZM18 1C27.39 1 35 8.61 35 18H37C37 7.51 28.49 -1 18 -1V1ZM35 18C35 27.39 27.39 35 18 35V37C28.49 37 37 28.49 37 18H35ZM18 35C8.61 35 1 27.39 1 18H-1C-1 28.49 7.51 37 18 37V35Z" fill="white"/>
</g>
<path d="M28 18C28 12.48 23.52 8 18 8C12.48 8 8 12.48 8 18C8 22.84 11.44 26.87 16 27.8V21H14V18H16V15.5C16 13.57 17.57 12 19.5 12H22V15H20C19.45 15 19 15.45 19 16V18H22V21H19V27.95C24.05 27.45 28 23.19 28 18Z" fill="white"/>
</svg>
