<svg width="36" height="36" viewBox="0 0 36 36" fill="none" xmlns="http://www.w3.org/2000/svg">
<path d="M10.2689 13.3842C9.90432 12.9421 9.47159 12.6697 9.09794 12.5613C8.72005 12.4516 8.48324 12.524 8.35989 12.6256C8.23659 12.7273 8.11971 12.9465 8.1554 13.3385C8.19077 13.7259 8.37651 14.2022 8.74097 14.6442C9.10564 15.0864 9.53811 15.36 9.91182 15.4685C10.2899 15.5781 10.5267 15.5044 10.65 15.4028C10.7732 15.301 10.8899 15.0829 10.8544 14.6912C10.8191 14.3037 10.6336 13.8264 10.2689 13.3842ZM11.4262 12.4299C11.9574 13.0741 12.2818 13.8294 12.3479 14.5545C12.4135 15.2751 12.2223 16.0503 11.6043 16.56C10.9862 17.0697 10.1881 17.1103 9.49314 16.9086C8.79404 16.7056 8.11487 16.2426 7.5837 15.5985C7.05252 14.9543 6.72733 14.1995 6.66125 13.4745C6.59564 12.7538 6.78746 11.978 7.40557 11.4683C8.02365 10.9588 8.82111 10.9187 9.516 11.1204C10.2153 11.3233 10.8949 11.7856 11.4262 12.4299Z" fill="#00529A"/>
<path d="M6 10.5695C6.00023 9.29558 7.03571 8.26012 8.30957 8.25988C8.99879 8.25988 9.5481 8.62052 9.91992 8.88977C10.0179 8.96069 10.1142 9.03416 10.2012 9.09973C10.2907 9.16729 10.3719 9.22811 10.4512 9.2843C10.6126 9.39878 10.7367 9.47214 10.8418 9.51477C11.2636 9.68491 11.666 9.72795 13.7725 9.82043C14.1862 9.8386 14.5074 10.1889 14.4893 10.6027C14.4711 11.0165 14.1208 11.3376 13.707 11.3195C11.7144 11.232 10.9974 11.1951 10.2793 10.9054C10.0145 10.798 9.77838 10.6465 9.58301 10.5079C9.4838 10.4376 9.38695 10.3642 9.29785 10.297C9.20618 10.2278 9.12329 10.1649 9.04004 10.1046C8.68696 9.84895 8.48029 9.75988 8.30957 9.75988C7.86412 9.76012 7.50023 10.124 7.5 10.5695C7.5 10.9313 7.72901 11.2325 8.04395 11.3409C8.4356 11.4758 8.64362 11.9024 8.50879 12.2941C8.3739 12.6856 7.94727 12.8937 7.55566 12.7589C6.65077 12.4473 6 11.5875 6 10.5695Z" fill="#00529A"/>
<path d="M27.6373 12.6525C27.514 12.5508 27.2771 12.4771 26.8991 12.5868C26.5254 12.6952 26.0929 12.9688 25.7282 13.411C25.3638 13.8531 25.178 14.3293 25.1426 14.7167C25.107 15.1088 25.2238 15.3279 25.3471 15.4296C25.4705 15.5312 25.7073 15.6036 26.0852 15.494C26.4588 15.3855 26.8916 15.1131 27.2562 14.671C27.6208 14.2288 27.8063 13.7515 27.8416 13.364C27.8772 12.9724 27.7604 12.7542 27.6373 12.6525ZM28.5916 11.4952C29.2095 12.0049 29.4007 12.7801 29.3351 13.5007C29.269 14.2258 28.9447 14.9812 28.4134 15.6254C27.8821 16.2696 27.2025 16.7319 26.5032 16.9349C25.8084 17.1365 25.0109 17.0965 24.3928 16.5869C23.7747 16.0772 23.5829 15.3014 23.6485 14.5808C23.7146 13.8557 24.0398 13.1009 24.5709 12.4567C25.1021 11.8126 25.7813 11.3496 26.4804 11.1466C27.1753 10.9449 27.9735 10.9855 28.5916 11.4952Z" fill="#00529A"/>
<path d="M21.98 11.8896C21.9799 11.4056 21.6688 10.8589 20.9409 10.3955C20.2222 9.93804 19.1843 9.62996 18.0005 9.62988C16.8164 9.62988 15.7779 9.93798 15.0591 10.3955C14.3312 10.8589 14.0201 11.4056 14.02 11.8896C14.02 12.128 14.1688 12.5084 14.4458 12.9424C14.7033 13.3458 14.9923 13.6739 15.1069 13.7861C16.1595 14.7874 16.6496 15.5207 16.6147 16.4844C16.6001 16.8882 16.4897 17.3079 16.396 17.6953C16.2965 18.1067 16.1869 18.5804 16.1147 19.1973V19.1992C16.0185 20.0014 16.0318 20.9543 16.1479 22.0762L16.2046 22.5674V22.5713C16.3923 24.1521 16.6621 25.1392 16.9936 25.7158C17.1523 25.9917 17.3099 26.1454 17.4536 26.2334C17.5933 26.3189 17.765 26.3701 18.0005 26.3701C18.2322 26.37 18.4011 26.3195 18.5395 26.2344C18.6824 26.1465 18.8394 25.9924 18.9985 25.7158C19.3307 25.1382 19.6027 24.1503 19.7954 22.5693V22.5674C19.9614 21.2297 19.9953 20.116 19.8852 19.1992V19.1973C19.8131 18.5825 19.7038 18.1108 19.605 17.7002C19.5118 17.3131 19.403 16.8943 19.3891 16.4902C19.3563 15.5298 19.8428 14.7953 20.8901 13.7891C21.0026 13.6797 21.2944 13.3493 21.5542 12.9424C21.8312 12.5084 21.98 12.128 21.98 11.8896ZM23.48 11.8896C23.48 12.5813 23.1242 13.2716 22.8188 13.75C22.4975 14.2533 22.13 14.6767 21.9311 14.8691L21.9292 14.8711C20.9371 15.8244 20.8786 16.1602 20.8882 16.4395C20.8956 16.6553 20.9546 16.8994 21.063 17.3496C21.1656 17.7761 21.2917 18.3163 21.3745 19.0205C21.5045 20.1036 21.4586 21.3499 21.2847 22.752C21.0874 24.3701 20.7894 25.6117 20.2993 26.4639C20.0471 26.9023 19.7294 27.2633 19.3257 27.5117C18.9178 27.7627 18.4683 27.87 18.0005 27.8701C17.5312 27.8701 17.0797 27.7633 16.6704 27.5127C16.265 27.2645 15.9464 26.903 15.6938 26.4639C15.2032 25.6109 14.9076 24.3687 14.7153 22.751C14.5414 21.3489 14.4955 20.1036 14.6255 19.0205C14.7083 18.3135 14.8344 17.7709 14.938 17.3428C15.0473 16.8907 15.1078 16.6466 15.1157 16.4307C15.1257 16.1544 15.07 15.8217 14.0727 14.873L14.0688 14.8691C13.87 14.6767 13.5025 14.2533 13.1811 13.75C12.8758 13.2716 12.52 12.5813 12.52 11.8896C12.5201 10.714 13.2692 9.75641 14.2534 9.12988C15.2471 8.49741 16.5745 8.12988 18.0005 8.12988C19.4263 8.12996 20.753 8.49748 21.7466 9.12988C22.7308 9.75641 23.4799 10.714 23.48 11.8896Z" fill="#00529A"/>
<path d="M28.5002 10.5695C28.5 10.1239 28.1353 9.75988 27.6897 9.75988C27.5191 9.75999 27.313 9.84919 26.9602 10.1046C26.877 10.1649 26.794 10.2279 26.7024 10.297C26.6133 10.3642 26.5155 10.4376 26.4163 10.5079C26.221 10.6464 25.9865 10.7981 25.7219 10.9054C25.0039 11.1951 24.2857 11.232 22.2932 11.3195C21.8794 11.3376 21.5292 11.0165 21.511 10.6027C21.4929 10.189 21.8132 9.83875 22.2268 9.82043C24.3325 9.72798 24.7369 9.6847 25.1584 9.51477L25.3323 9.42688C25.3967 9.3888 25.4682 9.34167 25.5491 9.2843C25.6283 9.22811 25.7095 9.16729 25.7991 9.09973C25.886 9.03419 25.9824 8.96065 26.0803 8.88977C26.4521 8.62057 27.0007 8.25999 27.6897 8.25988C28.9638 8.25988 30 9.29544 30.0002 10.5695C30.0002 11.5874 29.3494 12.4472 28.4446 12.7589C28.0529 12.8937 27.6253 12.6857 27.4905 12.2941C27.3557 11.9024 27.5647 11.4758 27.9563 11.3409C28.2711 11.2324 28.5002 10.9312 28.5002 10.5695Z" fill="#00529A"/>
</svg>
