<svg width="60" height="60" viewBox="0 0 60 60" fill="none" xmlns="http://www.w3.org/2000/svg">
<path d="M39.3751 35.625C43.1433 35.625 46.5888 36.4882 49.4054 38.0732L49.9601 38.3994V38.4004C53.1016 40.3322 55.2024 43.1135 56.1124 46.4775L56.1974 46.8057L56.2003 46.8164C56.2464 46.9995 56.2603 47.1888 56.2433 47.376L56.2159 47.5625C56.1662 47.8035 56.0627 48.0297 55.9152 48.2266C55.7867 48.3899 55.6237 48.5227 55.4366 48.6133C55.2956 48.6815 55.1444 48.7252 54.9894 48.7422L54.8331 48.75H23.9171C23.7598 48.7508 23.6039 48.7246 23.4562 48.6729L23.3107 48.6123C23.1233 48.5214 22.9598 48.3884 22.8312 48.2246C22.7214 48.0779 22.6366 47.9147 22.5802 47.7412L22.5314 47.5596C22.4937 47.375 22.4883 47.1857 22.5138 47L22.5499 46.8154L22.5519 46.8057C23.4143 43.3427 25.5437 40.4542 28.7872 38.4443L28.7882 38.4453C31.6871 36.6502 35.4476 35.625 39.3751 35.625ZM17.2277 34.5176C19.5935 34.5176 21.6688 34.8656 23.3019 35.4941C20.297 38.0051 18.1876 41.2451 17.1603 45H4.88098C4.75581 45.0006 4.63131 44.9797 4.51379 44.9385L4.39856 44.8906C4.25102 44.819 4.12147 44.7145 4.01965 44.5859C3.93035 44.4676 3.86125 44.3357 3.81555 44.1953L3.77747 44.0498C3.74718 43.9019 3.7425 43.7504 3.76282 43.6016L3.79114 43.4541L3.79309 43.4473C4.48082 40.6854 6.17611 38.3812 8.77258 36.7695L8.77356 36.7705C11.0811 35.3409 14.0838 34.5176 17.2277 34.5176ZM24.4972 35.0195H24.4982L24.3439 35.3359H24.3429L24.4972 35.0195ZM17.2267 15C18.9609 15 20.4776 15.6157 21.6017 16.7051L21.8214 16.9297H21.8224C22.9054 18.0937 23.4981 19.6649 23.4523 21.4316L23.4347 21.7871L23.4337 21.791C23.1514 25.7448 20.1498 28.5937 17.2267 28.5938C14.3872 28.5938 11.4805 25.9183 11.045 22.1562L11.0109 21.7891C10.8865 19.9708 11.41 18.3555 12.4152 17.1514L12.6222 16.916L12.6232 16.915C13.7519 15.7013 15.3684 15 17.2267 15ZM39.3751 11.25C41.5378 11.25 43.445 12.0148 44.8429 13.3652L45.1154 13.6436C46.5426 15.1769 47.2794 17.2995 47.1095 19.6875C46.9534 21.8463 46.1362 23.8524 44.8282 25.3916L44.5597 25.6934C43.0535 27.3109 41.2059 28.125 39.3751 28.125C37.6596 28.125 35.9257 27.4098 34.4698 25.9863L34.1827 25.6924C32.8074 24.2144 31.9148 22.2509 31.6749 20.1201L31.6359 19.6914L31.6144 19.2412C31.5633 17.1564 32.198 15.3123 33.3585 13.9209L33.6154 13.6299C35.0331 12.1079 37.0393 11.25 39.3751 11.25Z" stroke="url(#paint0_linear_514_1014)" stroke-width="3.75"/>
<defs>
<linearGradient id="paint0_linear_514_1014" x1="1.87512" y1="30" x2="58.1254" y2="30" gradientUnits="userSpaceOnUse">
<stop stop-color="#71D5AA"/>
<stop offset="1" stop-color="#0099CD"/>
</linearGradient>
</defs>
</svg>
