<svg width="60" height="60" viewBox="0 0 60 60" fill="none" xmlns="http://www.w3.org/2000/svg">
<g opacity="0.4">
<path d="M7.5 45H52.5M11.25 50.625H48.75M56.25 18.75C53.7636 18.75 51.379 17.7623 49.6209 16.0041C47.8627 14.246 46.875 11.8614 46.875 9.375M3.75 18.75C4.98114 18.75 6.20023 18.5075 7.33766 18.0364C8.47508 17.5652 9.50858 16.8747 10.3791 16.0041C11.2497 15.1336 11.9402 14.1001 12.4114 12.9627C12.8825 11.8252 13.125 10.6061 13.125 9.375M56.25 30C53.7636 30 51.379 30.9877 49.6209 32.7459C47.8627 34.504 46.875 36.8886 46.875 39.375M3.75 30C4.98114 30 6.20023 30.2425 7.33766 30.7136C8.47508 31.1848 9.50858 31.8753 10.3791 32.7459C11.2497 33.6164 11.9402 34.6499 12.4114 35.7873C12.8825 36.9248 13.125 38.1439 13.125 39.375M54.375 39.375H5.625C4.58947 39.375 3.75 38.5355 3.75 37.5V11.25C3.75 10.2145 4.58947 9.375 5.625 9.375H54.375C55.4105 9.375 56.25 10.2145 56.25 11.25V37.5C56.25 38.5355 55.4105 39.375 54.375 39.375ZM39.375 24.375C39.375 29.5527 35.1777 33.75 30 33.75C24.8223 33.75 20.625 29.5527 20.625 24.375C20.625 19.1973 24.8223 15 30 15C35.1777 15 39.375 19.1973 39.375 24.375Z" stroke="#32CC99" stroke-width="3.75" stroke-linecap="round" stroke-linejoin="round"/>
</g>
</svg>
