<svg width="60" height="60" viewBox="0 0 60 60" fill="none" xmlns="http://www.w3.org/2000/svg">
<g opacity="0.4">
<path d="M47.1097 19.6875C46.7663 24.4535 43.2308 28.125 39.3753 28.125C35.5198 28.125 31.9784 24.4547 31.6409 19.6875C31.2893 14.7293 34.7311 11.25 39.3753 11.25C44.0194 11.25 47.4612 14.8195 47.1097 19.6875Z" stroke="#32CC99" stroke-width="3.75" stroke-linecap="round" stroke-linejoin="round"/>
<path d="M39.3745 35.625C31.7374 35.625 24.3933 39.4184 22.5534 46.8059C22.3097 47.7832 22.9226 48.75 23.9269 48.75H54.8234C55.8277 48.75 56.437 47.7832 56.1968 46.8059C54.357 39.3 47.0128 35.625 39.3745 35.625Z" stroke="#32CC99" stroke-width="3.75" stroke-miterlimit="10"/>
<path d="M23.4374 21.7898C23.1632 25.5961 20.3061 28.5938 17.2265 28.5938C14.1468 28.5938 11.2851 25.5973 11.0155 21.7898C10.7354 17.8301 13.5163 15 17.2265 15C20.9366 15 23.7175 17.9027 23.4374 21.7898Z" stroke="#32CC99" stroke-width="3.75" stroke-linecap="round" stroke-linejoin="round"/>
<path d="M24.1408 35.8594C22.0256 34.8902 19.6959 34.5176 17.2267 34.5176C11.133 34.5176 5.26189 37.5469 3.79119 43.4473C3.59783 44.2277 4.08767 45 4.88923 45H18.047" stroke="#32CC99" stroke-width="3.75" stroke-miterlimit="10" stroke-linecap="round"/>
</g>
</svg>
