<svg width="60" height="60" viewBox="0 0 60 60" fill="none" xmlns="http://www.w3.org/2000/svg">
<path d="M52.5 7.5H7.5C5.42893 7.5 3.75 9.17893 3.75 11.25V41.25C3.75 43.3211 5.42893 45 7.5 45H52.5C54.5711 45 56.25 43.3211 56.25 41.25V11.25C56.25 9.17893 54.5711 7.5 52.5 7.5Z" stroke="url(#paint0_linear_514_3881)" stroke-width="3.75" stroke-linejoin="round"/>
<path d="M35.625 52.5L34.6875 45H25.3125L24.375 52.5H35.625Z" fill="url(#paint1_linear_514_3881)" stroke="url(#paint2_linear_514_3881)" stroke-width="3.75" stroke-linecap="round" stroke-linejoin="round"/>
<path d="M43.125 52.5H16.875" stroke="url(#paint3_linear_514_3881)" stroke-width="3.75" stroke-linecap="round" stroke-linejoin="round"/>
<path d="M3.75 35.625V41.25C3.75278 42.2437 4.14877 43.1959 4.85142 43.8986C5.55408 44.6012 6.50629 44.9972 7.5 45H52.5C53.4937 44.9972 54.4459 44.6012 55.1486 43.8986C55.8512 43.1959 56.2472 42.2437 56.25 41.25V35.625H3.75ZM30 43.125C29.6292 43.125 29.2666 43.015 28.9583 42.809C28.65 42.603 28.4096 42.3101 28.2677 41.9675C28.1258 41.6249 28.0887 41.2479 28.161 40.8842C28.2334 40.5205 28.412 40.1864 28.6742 39.9242C28.9364 39.662 29.2705 39.4834 29.6342 39.411C29.9979 39.3387 30.3749 39.3758 30.7175 39.5177C31.0601 39.6596 31.353 39.9 31.559 40.2083C31.765 40.5166 31.875 40.8792 31.875 41.25C31.875 41.7473 31.6775 42.2242 31.3258 42.5758C30.9742 42.9275 30.4973 43.125 30 43.125Z" fill="url(#paint4_linear_514_3881)"/>
<defs>
<linearGradient id="paint0_linear_514_3881" x1="3.75" y1="26.25" x2="56.25" y2="26.25" gradientUnits="userSpaceOnUse">
<stop stop-color="#71D5AA"/>
<stop offset="1" stop-color="#0099CD"/>
</linearGradient>
<linearGradient id="paint1_linear_514_3881" x1="24.375" y1="48.75" x2="35.625" y2="48.75" gradientUnits="userSpaceOnUse">
<stop stop-color="#71D5AA"/>
<stop offset="1" stop-color="#0099CD"/>
</linearGradient>
<linearGradient id="paint2_linear_514_3881" x1="24.375" y1="48.75" x2="35.625" y2="48.75" gradientUnits="userSpaceOnUse">
<stop stop-color="#71D5AA"/>
<stop offset="1" stop-color="#0099CD"/>
</linearGradient>
<linearGradient id="paint3_linear_514_3881" x1="16.875" y1="53" x2="43.125" y2="53" gradientUnits="userSpaceOnUse">
<stop stop-color="#71D5AA"/>
<stop offset="1" stop-color="#0099CD"/>
</linearGradient>
<linearGradient id="paint4_linear_514_3881" x1="3.75" y1="40.3125" x2="56.25" y2="40.3125" gradientUnits="userSpaceOnUse">
<stop stop-color="#71D5AA"/>
<stop offset="1" stop-color="#0099CD"/>
</linearGradient>
</defs>
</svg>
