<svg width="60" height="60" viewBox="0 0 60 60" fill="none" xmlns="http://www.w3.org/2000/svg">
<path d="M50.5078 37.5703C50.3906 37.1484 50.6484 36.5625 50.8945 36.1406C50.9698 36.0151 51.052 35.8938 51.1406 35.7773C53.2456 32.6494 54.3716 28.9656 54.375 25.1953C54.4102 14.3906 45.293 5.625 34.0195 5.625C24.1875 5.625 15.9844 12.3164 14.0625 21.1992C13.775 22.5158 13.6296 23.8594 13.6289 25.207C13.6289 36.0234 22.3945 45.0234 33.668 45.0234C35.4609 45.0234 37.875 44.4844 39.1992 44.1211C40.5234 43.7578 41.8359 43.2773 42.1758 43.1484C42.5241 43.017 42.8933 42.9495 43.2656 42.9492C43.6718 42.9477 44.0743 43.0274 44.4492 43.1836L51.0938 45.5391C51.2394 45.6008 51.3934 45.6403 51.5508 45.6563C51.7994 45.6563 52.0379 45.5575 52.2137 45.3817C52.3895 45.2058 52.4883 44.9674 52.4883 44.7188C52.48 44.6115 52.4603 44.5054 52.4297 44.4023L50.5078 37.5703Z" stroke="url(#paint0_linear_514_3049)" stroke-width="3.75" stroke-miterlimit="10" stroke-linecap="round"/>
<path d="M7.78823 27.1875C6.25124 29.9487 5.50772 33.0812 5.63987 36.2386C5.77202 39.396 6.7747 42.4554 8.53706 45.0785C8.80776 45.4875 8.96011 45.8039 8.91323 46.016C8.86636 46.2281 7.51518 53.2664 7.51518 53.2664C7.48268 53.4311 7.49501 53.6015 7.55088 53.7598C7.60674 53.9182 7.70409 54.0586 7.83276 54.1664C8.00445 54.3032 8.21793 54.3768 8.43745 54.375C8.55474 54.3752 8.67082 54.3513 8.77847 54.3047L15.3656 51.7266C15.8189 51.5478 16.3247 51.5563 16.7718 51.75C18.9914 52.6148 21.4453 53.1563 23.9003 53.1563C27.1948 53.1598 30.4315 52.2909 33.2812 50.6379" stroke="url(#paint1_linear_514_3049)" stroke-width="3.75" stroke-miterlimit="10" stroke-linecap="round"/>
<defs>
<linearGradient id="paint0_linear_514_3049" x1="13.6289" y1="25.6406" x2="54.3751" y2="25.6406" gradientUnits="userSpaceOnUse">
<stop stop-color="#71D5AA"/>
<stop offset="1" stop-color="#0099CD"/>
</linearGradient>
<linearGradient id="paint1_linear_514_3049" x1="5.62488" y1="40.7813" x2="33.2812" y2="40.7813" gradientUnits="userSpaceOnUse">
<stop stop-color="#71D5AA"/>
<stop offset="1" stop-color="#0099CD"/>
</linearGradient>
</defs>
</svg>
