<svg width="60" height="60" viewBox="0 0 60 60" fill="none" xmlns="http://www.w3.org/2000/svg">
<path d="M47.1092 19.6875C46.7658 24.4535 43.2303 28.125 39.3748 28.125C35.5193 28.125 31.9779 24.4547 31.6404 19.6875C31.2889 14.7293 34.7307 11.25 39.3748 11.25C44.0189 11.25 47.4607 14.8195 47.1092 19.6875Z" stroke="#32CC99" stroke-width="3" stroke-linecap="round" stroke-linejoin="round"/>
<path d="M39.375 35.625C31.7379 35.625 24.3938 39.4184 22.5539 46.8059C22.3102 47.7832 22.9231 48.75 23.9274 48.75H54.8239C55.8281 48.75 56.4375 47.7832 56.1973 46.8059C54.3574 39.3 47.0133 35.625 39.375 35.625Z" stroke="#32CC99" stroke-width="3" stroke-miterlimit="10"/>
<path d="M23.4374 21.7898C23.1632 25.5961 20.3061 28.5938 17.2265 28.5938C14.1468 28.5938 11.2851 25.5973 11.0155 21.7898C10.7354 17.8301 13.5163 15 17.2265 15C20.9366 15 23.7175 17.9027 23.4374 21.7898Z" stroke="#32CC99" stroke-width="3" stroke-linecap="round" stroke-linejoin="round"/>
<path d="M24.1408 35.8594C22.0256 34.8902 19.6959 34.5176 17.2267 34.5176C11.133 34.5176 5.26189 37.5469 3.79119 43.4473C3.59783 44.2277 4.08767 45 4.88923 45H18.047" stroke="#32CC99" stroke-width="3" stroke-miterlimit="10" stroke-linecap="round"/>
</svg>
