<svg width="60" height="60" viewBox="0 0 60 60" fill="none" xmlns="http://www.w3.org/2000/svg">
<path d="M50.625 15H9.375C6.2684 15 3.75 17.5184 3.75 20.625V46.875C3.75 49.9816 6.2684 52.5 9.375 52.5H50.625C53.7316 52.5 56.25 49.9816 56.25 46.875V20.625C56.25 17.5184 53.7316 15 50.625 15Z" stroke="url(#paint0_linear_514_175)" stroke-width="3.75" stroke-linejoin="round"/>
<path d="M16.875 15V11.25C16.875 10.2554 17.2701 9.30161 17.9734 8.59835C18.6766 7.89509 19.6304 7.5 20.625 7.5H39.375C40.3696 7.5 41.3234 7.89509 42.0266 8.59835C42.7299 9.30161 43.125 10.2554 43.125 11.25V15M56.25 28.125H3.75M37.5 28.125V30.9375C37.5 31.1861 37.4012 31.4246 37.2254 31.6004C37.0496 31.7762 36.8111 31.875 36.5625 31.875H23.4375C23.1889 31.875 22.9504 31.7762 22.7746 31.6004C22.5988 31.4246 22.5 31.1861 22.5 30.9375V28.125" stroke="url(#paint1_linear_514_175)" stroke-width="3.75" stroke-linecap="round" stroke-linejoin="round"/>
<defs>
<linearGradient id="paint0_linear_514_175" x1="3.75" y1="33.75" x2="56.25" y2="33.75" gradientUnits="userSpaceOnUse">
<stop stop-color="#71D5AA"/>
<stop offset="1" stop-color="#0099CD"/>
</linearGradient>
<linearGradient id="paint1_linear_514_175" x1="3.75" y1="19.6875" x2="56.25" y2="19.6875" gradientUnits="userSpaceOnUse">
<stop stop-color="#71D5AA"/>
<stop offset="1" stop-color="#0099CD"/>
</linearGradient>
</defs>
</svg>
