<svg width="60" height="60" viewBox="0 0 60 60" fill="none" xmlns="http://www.w3.org/2000/svg">
<path d="M52.0512 3.75H8.23594C5.8418 3.75 3.75 5.47266 3.75 7.83867V51.7512C3.75 54.1301 5.8418 56.25 8.23594 56.25H52.0383C54.4453 56.25 56.25 54.116 56.25 51.7512V7.83867C56.2641 5.47266 54.4453 3.75 52.0512 3.75ZM20.0238 47.5113H12.5027V24.1266H20.0238V47.5113ZM16.5234 20.5711H16.4695C14.0625 20.5711 12.5039 18.7793 12.5039 16.5363C12.5039 14.2523 14.1035 12.5027 16.5645 12.5027C19.0254 12.5027 20.5312 14.2395 20.5852 16.5363C20.584 18.7793 19.0254 20.5711 16.5234 20.5711ZM47.5113 47.5113H39.9902V34.725C39.9902 31.6617 38.8957 29.5688 36.1746 29.5688C34.0957 29.5688 32.8652 30.975 32.318 32.3449C32.1129 32.8371 32.0578 33.5074 32.0578 34.1918V47.5113H24.5367V24.1266H32.0578V27.3809C33.1523 25.8223 34.8621 23.5793 38.8406 23.5793C43.7777 23.5793 47.5125 26.8336 47.5125 33.8496L47.5113 47.5113Z" fill="black"/>
</svg>
