<svg width="41" height="40" viewBox="0 0 41 40" fill="none" xmlns="http://www.w3.org/2000/svg">
<path d="M35.2008 2.5H5.99063C4.39453 2.5 3 3.64844 3 5.22578V34.5008C3 36.0867 4.39453 37.5 5.99063 37.5H35.1922C36.7969 37.5 38 36.0773 38 34.5008V5.22578C38.0094 3.64844 36.7969 2.5 35.2008 2.5ZM13.8492 31.6742H8.83516V16.0844H13.8492V31.6742ZM11.5156 13.7141H11.4797C9.875 13.7141 8.83594 12.5195 8.83594 11.0242C8.83594 9.50156 9.90234 8.33516 11.543 8.33516C13.1836 8.33516 14.1875 9.49297 14.2234 11.0242C14.2227 12.5195 13.1836 13.7141 11.5156 13.7141ZM32.1742 31.6742H27.1602V23.15C27.1602 21.1078 26.4305 19.7125 24.6164 19.7125C23.2305 19.7125 22.4102 20.65 22.0453 21.5633C21.9086 21.8914 21.8719 22.3383 21.8719 22.7945V31.6742H16.8578V16.0844H21.8719V18.2539C22.6016 17.2148 23.7414 15.7195 26.3938 15.7195C29.6852 15.7195 32.175 17.8891 32.175 22.5664L32.1742 31.6742Z" fill="#32CC99"/>
</svg>
