<svg width="22" height="25" viewBox="0 0 22 25" fill="none" xmlns="http://www.w3.org/2000/svg">
<path d="M11 2.5C15.8176 2.50273 19.7265 6.56187 19.7266 11.5635C19.7266 16.2871 16.2937 20.0272 12.1523 22.2129C11.434 22.5959 10.5759 22.596 9.84766 22.2129C5.71633 20.0168 2.27344 16.2768 2.27344 11.5635C2.27349 6.56196 6.18249 2.50287 11 2.5ZM11.0146 4.05371C7.02327 4.05397 3.78033 7.42014 3.78027 11.5635C3.78027 15.4273 6.62437 18.7524 10.5361 20.8242C10.8355 20.9796 11.185 20.9796 11.4844 20.8242H11.4941C15.4059 18.7524 18.25 15.4273 18.25 11.5635C18.2499 7.41998 15.0062 4.05371 11.0146 4.05371ZM11.0049 7.67871C13.0705 7.67871 14.747 9.41924 14.7471 11.5635C14.7471 13.7078 13.0705 15.4482 11.0049 15.4482C8.93932 15.4481 7.2627 13.7077 7.2627 11.5635C7.26275 9.41932 8.93936 7.67884 11.0049 7.67871ZM11.0049 9.23242C9.76762 9.23255 8.75982 10.2791 8.75977 11.5635C8.75977 12.8479 9.76759 13.8944 11.0049 13.8945C12.2423 13.8945 13.25 12.848 13.25 11.5635C13.2499 10.279 12.2423 9.23242 11.0049 9.23242Z" fill="white"/>
</svg>
