<svg width="24" height="24" viewBox="0 0 24 24" fill="none" xmlns="http://www.w3.org/2000/svg">
<path d="M12 2C16.8176 2.00273 20.7265 6.06187 20.7266 11.0635C20.7266 15.7871 17.2937 19.5272 13.1523 21.7129C12.434 22.0959 11.5759 22.096 10.8477 21.7129C6.71633 19.5168 3.27344 15.7768 3.27344 11.0635C3.27349 6.06196 7.18249 2.00287 12 2ZM12.0146 3.55371C8.02327 3.55397 4.78033 6.92014 4.78027 11.0635C4.78027 14.9273 7.62437 18.2524 11.5361 20.3242C11.8355 20.4796 12.185 20.4796 12.4844 20.3242H12.4941C16.4059 18.2524 19.25 14.9273 19.25 11.0635C19.2499 6.91998 16.0062 3.55371 12.0146 3.55371ZM12.0049 7.17871C14.0705 7.17871 15.747 8.91924 15.7471 11.0635C15.7471 13.2078 14.0705 14.9482 12.0049 14.9482C9.93932 14.9481 8.2627 13.2077 8.2627 11.0635C8.26275 8.91932 9.93936 7.17884 12.0049 7.17871ZM12.0049 8.73242C10.7676 8.73255 9.75982 9.77911 9.75977 11.0635C9.75977 12.3479 10.7676 13.3944 12.0049 13.3945C13.2423 13.3945 14.25 12.348 14.25 11.0635C14.2499 9.77903 13.2423 8.73242 12.0049 8.73242Z" fill="#00529A"/>
</svg>
