<svg width="30" height="30" viewBox="0 0 30 30" fill="none" xmlns="http://www.w3.org/2000/svg">
<path d="M20.1563 8.4375C19.9266 11.5354 17.5782 14.0625 15 14.0625C12.4219 14.0625 10.0694 11.5359 9.8438 8.4375C9.60942 5.21484 11.8946 2.8125 15 2.8125C18.1055 2.8125 20.3907 5.27344 20.1563 8.4375Z" stroke="url(#paint0_linear_99_1520)" stroke-width="2" stroke-linecap="round" stroke-linejoin="round"/>
<path d="M15 17.8125C9.90236 17.8125 4.72854 20.625 3.77111 25.9336C3.65568 26.5734 4.01779 27.1875 4.68752 27.1875H25.3125C25.9828 27.1875 26.3449 26.5734 26.2295 25.9336C25.2715 20.625 20.0977 17.8125 15 17.8125Z" stroke="url(#paint1_linear_99_1520)" stroke-width="2" stroke-miterlimit="10"/>
<defs>
<linearGradient id="paint0_linear_99_1520" x1="9.82727" y1="8.4375" x2="20.1728" y2="8.4375" gradientUnits="userSpaceOnUse">
<stop stop-color="#71D5AA"/>
<stop offset="1" stop-color="#0099CD"/>
</linearGradient>
<linearGradient id="paint1_linear_99_1520" x1="3.74988" y1="22.5" x2="26.2507" y2="22.5" gradientUnits="userSpaceOnUse">
<stop stop-color="#71D5AA"/>
<stop offset="1" stop-color="#0099CD"/>
</linearGradient>
</defs>
</svg>
