<svg width="24" height="24" viewBox="0 0 24 24" fill="none" xmlns="http://www.w3.org/2000/svg">
<path d="M17.077 13.8746C16.2771 13.075 14.9733 13.075 14.1695 13.8746L13.3536 14.6902C11.5499 13.8826 10.1181 12.4513 9.31026 10.6481L10.1261 9.83248C10.5141 9.44466 10.73 8.92889 10.73 8.38115C10.73 7.8334 10.5181 7.31764 10.1261 6.92582L8.30243 5.10265C7.49856 4.30302 6.19477 4.30302 5.3949 5.10265L4.39906 6.0982C4.00713 6.48602 3.74317 6.97379 3.63119 7.50155C3.01529 9.85247 4.60703 13.4348 7.58654 16.4135C10.1061 18.9363 13.1056 20.4996 15.4093 20.4996C15.4213 20.4996 15.4293 20.4996 15.4413 20.4996C15.8012 20.4996 16.1571 20.4556 16.4971 20.3676C17.033 20.2517 17.5209 19.9878 17.9089 19.6L18.9047 18.6044C19.2926 18.2166 19.5086 17.7009 19.5086 17.1531C19.5086 16.6054 19.2966 16.0896 18.9047 15.7018L17.081 13.8746H17.077ZM17.9809 17.6809L17.8409 17.5409L16.845 18.5365C16.6531 18.7284 16.4091 18.8563 16.1292 18.9123C14.3015 19.3961 11.226 17.9288 8.64637 15.3499C6.07079 12.7751 4.60703 9.69254 5.09095 7.84139C5.14294 7.58551 5.27092 7.34962 5.45889 7.1657L6.45473 6.17016C6.67069 5.95426 7.02663 5.95426 7.2426 6.17016L9.0623 7.98533C9.27827 8.20123 9.27827 8.55707 9.0623 8.77297L7.89449 9.94043C7.69053 10.1443 7.62254 10.4522 7.71852 10.7241C8.67837 13.2909 10.706 15.314 13.2776 16.2735C13.5496 16.3695 13.8495 16.3015 14.0575 16.0976L15.2253 14.9341C15.4413 14.7182 15.7972 14.7182 16.0132 14.9341L17.8369 16.7573C17.9409 16.8612 18.0008 17.0012 18.0008 17.1491C18.0008 17.297 17.9449 17.437 17.8369 17.5449L17.9769 17.6809H17.9809Z" fill="#00529A"/>
<path d="M17.924 6.0861C16.5602 4.66675 14.7285 3.75117 12.7648 3.50328C12.5608 3.48329 12.3689 3.54327 12.2129 3.67121C12.0569 3.79915 11.9609 3.97906 11.9449 4.17897C11.9049 4.59078 12.2089 4.95861 12.6168 4.9946C14.2286 5.2025 15.7323 5.96215 16.8601 7.14161C18.032 8.26509 18.7918 9.7684 18.9998 11.3717C19.0358 11.7595 19.3557 12.0514 19.7437 12.0514H19.8197C20.2316 12.0114 20.5355 11.6475 20.4956 11.2277C20.2476 9.27663 19.3357 7.44947 17.92 6.0821L17.924 6.0861ZM17.784 6.22603V6.21803L17.86 6.14207L17.78 6.22203L17.784 6.22603Z" fill="#00529A"/>
<path d="M15.9895 11.3999C16.0375 11.7717 16.3575 12.0476 16.7294 12.0516H16.7334C16.7694 12.0516 16.8014 12.0516 16.8334 12.0436C17.2413 11.9876 17.5293 11.6118 17.4733 11.196C17.0773 8.8051 15.2056 6.93396 12.814 6.53814C12.4141 6.47417 12.0382 6.74604 11.9702 7.14186V7.18184C11.9382 7.38175 11.9902 7.57766 12.1141 7.73359C12.2341 7.89352 12.4101 7.99347 12.6061 8.02146C13.4499 8.15739 14.2378 8.5692 14.8337 9.18092C15.4496 9.77265 15.8615 10.5643 15.9935 11.3999H15.9895Z" fill="#00529A"/>
</svg>
