<svg width="60" height="60" viewBox="0 0 60 60" fill="none" xmlns="http://www.w3.org/2000/svg">
<path d="M32.7018 26.78L20.7367 10.005C20.598 9.81011 20.4146 9.65123 20.202 9.54164C19.9893 9.43204 19.7535 9.37491 19.5142 9.375H13.1992C12.924 9.37535 12.6542 9.45143 12.4193 9.59492C12.1844 9.7384 11.9935 9.94374 11.8675 10.1885C11.7415 10.4332 11.6853 10.7079 11.705 10.9824C11.7247 11.257 11.8196 11.5208 11.9792 11.745L27.2967 33.22M32.7018 26.78L48.0192 48.255C48.1789 48.4792 48.2738 48.743 48.2935 49.0176C48.3132 49.2921 48.257 49.5668 48.131 49.8115C48.005 50.0563 47.8141 50.2616 47.5792 50.4051C47.3443 50.5486 47.0745 50.6246 46.7992 50.625H40.4843C40.245 50.6251 40.0092 50.568 39.7965 50.4584C39.5839 50.3488 39.4005 50.1899 39.2617 49.995L27.2967 33.22M32.7018 26.78L47.3068 9.375M27.2967 33.22L12.6917 50.625" stroke="black" stroke-width="3.75" stroke-linecap="round" stroke-linejoin="round"/>
</svg>
