<svg width="41" height="40" viewBox="0 0 41 40" fill="none" xmlns="http://www.w3.org/2000/svg">
<path d="M40.2375 11.6242C40.2375 8.10859 37.6516 5.28047 34.4562 5.28047C30.1281 5.07812 25.7141 5 21.2031 5H19.7969C15.2969 5 10.875 5.07812 6.54686 5.28125C3.35936 5.28125 0.773424 8.125 0.773424 11.6406C0.578112 14.4211 0.495299 17.2023 0.499987 19.9836C0.492174 22.7648 0.580716 25.5487 0.765612 28.3352C0.765612 31.8508 3.35155 34.7023 6.53905 34.7023C11.0859 34.9133 15.75 35.007 20.4922 34.9992C25.2422 35.0148 29.8932 34.9159 34.4453 34.7023C37.6406 34.7023 40.2266 31.8508 40.2266 28.3352C40.4141 25.5461 40.5 22.7648 40.4922 19.9758C40.5099 17.1945 40.425 14.4107 40.2375 11.6242ZM16.6719 27.6477V12.2961L28 19.968L16.6719 27.6477Z" fill="#32CC99"/>
</svg>
