<svg width="202" height="137" viewBox="0 0 202 137" fill="none" xmlns="http://www.w3.org/2000/svg">
<g opacity="0.3">
<path d="M175.694 119.159L204.463 135.437C208.336 137.607 213.315 136.522 215.528 132.724L232.125 104.51C234.338 100.712 233.232 95.8286 229.359 93.6583L200.59 77.381C196.718 75.2107 191.738 76.2958 189.525 80.0939L172.928 108.308C170.162 112.106 171.268 116.989 175.694 119.159Z" fill="#0098CC"/>
<path d="M169.677 31.6725L198.332 47.7854C202.189 49.9338 207.148 48.8596 209.353 45.0999L225.884 17.1708C228.088 13.4112 226.986 8.57728 223.129 6.42889L194.474 -9.68404C190.617 -11.8324 185.658 -10.7582 183.453 -6.99855L166.922 20.9305C164.718 24.6902 165.82 29.5241 169.677 31.6725Z" fill="#0098CC"/>
<path d="M110.883 26.9645L125.225 34.9546C127.431 36.02 129.638 35.4873 130.741 33.3566L139.015 19.5071C140.118 17.3764 139.566 15.2457 137.36 14.1804L123.57 6.1903C121.364 5.12495 119.157 5.6576 118.054 7.78829L109.78 21.6378C108.125 23.2358 109.229 25.8992 110.883 26.9645Z" fill="#0098CC"/>
<path d="M6.86714 24.3467L49.8213 48.4691C55.8789 51.6854 63.5887 50.0772 66.8928 44.1806L91.6741 2.36846C94.9782 -3.52813 93.3262 -11.0329 87.2685 -14.2492L44.3144 -38.3716C38.2567 -41.5879 30.547 -39.9797 27.2428 -34.0831L2.46157 7.729C-0.8426 13.6256 1.36019 21.1304 6.86714 24.3467Z" fill="#0098CC"/>
</g>
</svg>
