<svg width="565" height="495" viewBox="0 0 565 495" fill="none" xmlns="http://www.w3.org/2000/svg">
<g opacity="0.1">
<path d="M87.31 48.7406L8.68425 3.10144C-1.89999 -2.98378 -15.5083 0.0588321 -21.5564 10.708L-66.9175 89.8159C-72.9656 100.465 -69.9415 114.157 -59.3573 120.242L19.2684 165.881C29.8527 171.966 43.461 168.924 49.5091 158.275L94.8702 79.1668C102.43 68.5176 99.4063 54.8259 87.31 48.7406Z" fill="#0098CC"/>
<path d="M103.754 294.041L25.4412 248.863C14.899 242.839 1.34482 245.851 -4.67928 256.393L-49.86 334.702C-55.884 345.243 -52.872 358.797 -42.3298 364.82L35.9833 409.999C46.5255 416.022 60.0797 413.011 66.1037 402.469L111.284 324.16C117.309 313.619 114.296 300.065 103.754 294.041Z" fill="#0098CC"/>
<path d="M264.439 307.241L225.244 284.838C219.214 281.851 213.184 283.345 210.169 289.319L187.556 328.151C184.541 334.125 186.048 340.099 192.078 343.086L229.766 365.489C235.796 368.476 241.826 366.983 244.841 361.009L267.454 322.177C271.976 317.696 268.961 310.228 264.439 307.241Z" fill="#0098CC"/>
<path d="M548.717 314.581L431.322 246.946C414.767 237.928 393.696 242.437 384.666 258.97L316.938 376.205C307.908 392.738 312.423 413.78 328.979 422.798L446.373 490.434C462.929 499.452 483.999 494.943 493.03 478.41L560.757 361.175C569.787 344.642 563.767 323.599 548.717 314.581Z" fill="#0098CC"/>
</g>
</svg>
