<svg width="251" height="154" viewBox="0 0 251 154" fill="none" xmlns="http://www.w3.org/2000/svg">
<g opacity="0.1">
<path d="M196.689 133.93L229.063 152.723C233.421 155.229 239.025 153.976 241.515 149.591L260.192 117.016C262.683 112.631 261.438 106.993 257.079 104.487L224.705 85.6944C220.347 83.1887 214.744 84.4415 212.254 88.8266L193.576 121.401C190.463 125.786 191.708 131.424 196.689 133.93Z" fill="#0098CC"/>
<path d="M189.919 32.9214L222.165 51.5246C226.506 54.0051 232.087 52.7648 234.567 48.4241L253.17 16.1785C255.651 11.8378 254.411 6.25681 250.07 3.77638L217.824 -14.8268C213.483 -17.3073 207.903 -16.067 205.422 -11.7263L186.819 20.5192C184.338 24.86 185.579 30.441 189.919 32.9214Z" fill="#0098CC"/>
<path d="M123.756 27.4861L139.895 36.7111C142.378 37.9411 144.861 37.326 146.102 34.866L155.413 18.8761C156.654 16.4161 156.034 13.9561 153.551 12.7261L138.033 3.50113C135.55 2.27113 133.067 2.8861 131.826 5.3461L122.515 21.3361C120.653 23.1811 121.894 26.2561 123.756 27.4861Z" fill="#0098CC"/>
<path d="M6.7047 24.4636L55.042 52.3142C61.8588 56.0276 70.5347 54.1709 74.253 47.363L102.14 -0.911373C105.858 -7.71929 103.999 -16.3839 97.1822 -20.0973L48.8449 -47.9479C42.0281 -51.6613 33.3522 -49.8046 29.6339 -42.9966L1.747 5.27765C-1.97125 12.0856 0.507606 20.7502 6.7047 24.4636Z" fill="#0098CC"/>
</g>
</svg>
