<svg width="132" height="98" viewBox="0 0 132 98" fill="none" xmlns="http://www.w3.org/2000/svg">
<g opacity="0.1">
<path d="M113.94 86.3736L132.694 97.2602C135.219 98.7117 138.465 97.986 139.907 95.4458L150.727 76.5756C152.17 74.0354 151.448 70.7694 148.924 69.3179L130.17 58.4313C127.645 56.9797 124.399 57.7055 122.957 60.2457L112.137 79.1158C110.334 81.6561 111.055 84.922 113.94 86.3736Z" fill="#32CC99"/>
<path d="M110.018 27.8604L128.697 38.6371C131.212 40.074 134.445 39.3555 135.882 36.841L146.658 18.1615C148.095 15.6469 147.377 12.4139 144.862 10.977L126.183 0.200397C123.668 -1.23649 120.435 -0.518044 118.998 1.99651L108.222 20.676C106.785 23.1906 107.503 26.4236 110.018 27.8604Z" fill="#32CC99"/>
<path d="M71.6908 24.7118L81.0397 30.0558C82.478 30.7683 83.9163 30.412 84.6355 28.987L90.0291 19.7241C90.7482 18.2991 90.3887 16.874 88.9504 16.1615L79.961 10.8176C78.5227 10.1051 77.0844 10.4613 76.3652 11.8864L70.9716 21.1492C69.8929 22.218 70.612 23.9993 71.6908 24.7118Z" fill="#32CC99"/>
<path d="M3.88396 22.9609L31.8852 39.0945C35.8341 41.2456 40.86 40.17 43.014 36.2263L59.1685 8.26147C61.3225 4.31772 60.2455 -0.701599 56.2966 -2.85274L28.2953 -18.9863C24.3464 -21.1374 19.3206 -20.0618 17.1666 -16.1181L1.01202 11.8467C-1.14192 15.7905 0.294051 20.8098 3.88396 22.9609Z" fill="#32CC99"/>
</g>
</svg>
