<svg width="18" height="14" viewBox="0 0 18 14" fill="none" xmlns="http://www.w3.org/2000/svg">
<path d="M17.7737 6.45017L11.6023 0.225639L10.512 1.3253L16.6834 7.54983L17.7737 6.45017ZM11.6023 13.7744L17.7737 7.54983L16.6834 6.45017L10.512 12.6747L11.6023 13.7744ZM17.2286 6.22193H0.771444V7.77807H17.2286V6.22193ZM11.6023 0.225639C11.304 -0.075213 10.8103 -0.075213 10.512 0.225639C10.2137 0.526491 10.2137 1.02445 10.512 1.3253L11.6023 0.225639ZM10.512 12.6747C10.2137 12.9755 10.2137 13.4735 10.512 13.7744C10.8103 14.0752 11.304 14.0752 11.6023 13.7744L10.512 12.6747ZM0.771444 6.22193C0.34973 6.22193 0 6.57466 0 7C0 7.42534 0.34973 7.77807 0.771444 7.77807V6.22193ZM17.2286 7L17.7737 7.54983C17.9177 7.40459 18 7.20748 18 7C18 6.79252 17.9177 6.59541 17.7737 6.45017L17.2286 7Z" fill="#17181C"/>
</svg>
