<svg width="18" height="24" viewBox="0 0 18 24" fill="none" xmlns="http://www.w3.org/2000/svg">
<path d="M9.5453 23.7687L17.7762 15.3587L16.6856 14.2444L8.4547 22.6544L9.5453 23.7687ZM0.223778 15.3587L8.4547 23.7687L9.5453 22.6544L1.31437 14.2444L0.223778 15.3587ZM9.77165 23.2116V0.788436H8.22835V23.2116H9.77165ZM17.7762 15.3587C18.0746 15.0539 18.0746 14.5493 17.7762 14.2444C17.4779 13.9396 16.984 13.9396 16.6856 14.2444L17.7762 15.3587ZM1.31437 14.2444C1.016 13.9396 0.522149 13.9396 0.223778 14.2444C-0.0745927 14.5493 -0.0745927 15.0539 0.223778 15.3587L1.31437 14.2444ZM9.77165 0.788436C9.77165 0.357424 9.42183 0 9 0C8.57817 0 8.22835 0.357424 8.22835 0.788436H9.77165ZM9 23.2116L8.4547 23.7687C8.59874 23.9159 8.79423 24 9 24C9.20577 24 9.40126 23.9159 9.5453 23.7687L9 23.2116Z"/>
</svg>
