<svg width="18" height="14" viewBox="0 0 18 14" fill="none" xmlns="http://www.w3.org/2000/svg">
<path fill-rule="evenodd" clip-rule="evenodd" d="M10.5117 0.223714C10.81 -0.0745714 11.3043 -0.0745714 11.6025 0.223714L17.7734 6.39461C17.9173 6.53852 17.9999 6.73396 18 6.93953C18 7.14525 17.9174 7.34143 17.7734 7.48543L11.6025 13.6563C11.3043 13.9546 10.81 13.9546 10.5117 13.6563C10.2138 13.3581 10.2138 12.8647 10.5117 12.5665L15.3672 7.71102H0.771484C0.34977 7.71102 0 7.36125 0 6.93953C0.000213267 6.51799 0.349899 6.16805 0.771484 6.16805H15.3662L10.5117 1.31356C10.2137 1.01536 10.2138 0.521972 10.5117 0.223714Z" fill="white"/>
</svg>
