<svg width="32" height="32" viewBox="0 0 32 32" fill="none" xmlns="http://www.w3.org/2000/svg">
<path d="M22.8804 19H12.3219C11.2603 19 10.3504 18.2255 10.1609 17.1471L8.42638 7.83333C8.38847 7.62745 8.20839 7.47059 7.99987 7.47059H6.71085C6.32225 7.47059 6 7.13725 6 6.73529C6 6.33333 6.32225 6 6.71085 6H8.00935C8.89081 6 9.65853 6.65686 9.82914 7.54902L11.5541 16.8725C11.6205 17.2549 11.9522 17.5294 12.3219 17.5294H22.8899C23.269 17.5294 23.5913 17.2549 23.6576 16.8725L24.5675 11.9412C24.6149 11.7059 24.5486 11.4608 24.4064 11.2745C24.2547 11.0882 24.0368 10.9804 23.7998 10.9804H14.1227C13.7341 10.9804 13.4118 10.6471 13.4118 10.2451C13.4118 9.84314 13.7341 9.5098 14.1227 9.5098H23.7998C24.4633 9.5098 25.0793 9.81373 25.4964 10.3333C25.9134 10.8627 26.084 11.549 25.9608 12.2157L25.0509 17.1471C24.8519 18.2255 23.942 19 22.8804 19Z" fill="#00529A"/>
<path d="M12.5 26C11.12 26 10 24.88 10 23.5C10 22.12 11.12 21 12.5 21C13.88 21 15 22.12 15 23.5C15 24.88 13.88 26 12.5 26ZM12.5 22.5C11.95 22.5 11.5 22.95 11.5 23.5C11.5 24.05 11.95 24.5 12.5 24.5C13.05 24.5 13.5 24.05 13.5 23.5C13.5 22.95 13.05 22.5 12.5 22.5Z" fill="#00529A"/>
<path d="M19.5 26C18.12 26 17 24.88 17 23.5C17 22.12 18.12 21 19.5 21C20.88 21 22 22.12 22 23.5C22 24.88 20.88 26 19.5 26ZM19.5 22.5C18.95 22.5 18.5 22.95 18.5 23.5C18.5 24.05 18.95 24.5 19.5 24.5C20.05 24.5 20.5 24.05 20.5 23.5C20.5 22.95 20.05 22.5 19.5 22.5Z" fill="#00529A"/>
</svg>
