<svg width="36" height="36" viewBox="0 0 36 36" fill="none" xmlns="http://www.w3.org/2000/svg">
<path d="M18.5244 4.59717C18.5402 4.60768 18.5615 4.62888 18.5879 4.6499C18.6406 4.6972 18.7256 4.76564 18.8311 4.85498C19.042 5.03891 19.3479 5.30143 19.7168 5.63232C20.4603 6.29449 21.4834 7.24563 22.5908 8.37549C24.7952 10.6248 27.4058 13.658 28.8613 16.6694L27.4375 17.3521C26.098 14.5772 23.6346 11.6978 21.4619 9.47998C20.3861 8.37633 19.3895 7.45063 18.667 6.8042C18.4072 6.5716 18.1813 6.37785 18.001 6.22217C17.7021 6.47879 17.2826 6.84789 16.7842 7.30908C15.7453 8.26032 14.3689 9.60072 12.9873 11.1353C11.6057 12.6751 10.24 14.3988 9.22754 16.1226C8.20976 17.8568 7.58693 19.5228 7.58691 20.9575C7.58691 24.0056 8.82643 26.2394 10.709 27.7319C12.6127 29.2403 15.229 30.0229 18.0029 30.0229V31.6001C14.9495 31.6001 11.9639 30.7436 9.72266 28.9673C7.46141 27.176 6.00621 24.4864 6.00488 20.9624H6C6.00013 19.1126 6.78033 17.1626 7.86133 15.3286C8.94767 13.4787 10.3881 11.6712 11.8066 10.0894C13.2305 8.50226 14.6486 7.13032 15.7139 6.15283C16.2465 5.66407 16.6898 5.27535 17.001 5.00732C17.1591 4.87073 17.2799 4.77034 17.3643 4.69678C17.4062 4.66546 17.4379 4.6396 17.459 4.61865C17.4692 4.60844 17.4799 4.59774 17.4854 4.59717C17.4892 4.59334 17.4909 4.59257 17.4912 4.59229C17.4978 4.60028 17.6649 4.8034 17.9922 5.20166V5.20264C17.9955 5.19865 17.9996 5.19494 18.0029 5.19092H18.0078C18.3374 4.78985 18.5045 4.58679 18.5088 4.58154C18.5089 4.58671 18.5191 4.592 18.5244 4.59717ZM25.4873 27.5825C25.8195 27.3006 26.3197 27.3488 26.5986 27.6792C26.8834 28.0103 26.8361 28.51 26.5039 28.7886V28.7935L26.501 28.7905C24.2389 30.6862 21.1549 31.6001 18.0078 31.6001V30.0229C20.8712 30.0229 23.5658 29.1876 25.4854 27.5796L25.4873 27.5825ZM20.6445 25.561L21.3936 25.8081C21.2881 26.1077 21.019 26.3232 20.6973 26.3442C20.3757 26.3652 20.075 26.1923 19.9326 25.9087L20.6396 25.5562L20.6445 25.561ZM23.2178 16.8843C23.499 16.8659 23.7645 16.9965 23.9219 17.2192L23.9824 17.3208L26.4014 22.1401H29.209C29.6466 22.1401 29.9999 22.4921 30 22.9282C30 23.3644 29.6467 23.7163 29.209 23.7163H25.9131C25.6502 23.7163 25.4076 23.588 25.2627 23.3765L25.2061 23.2808L23.4238 19.73L21.3936 25.8032L20.6426 25.5532L19.9326 25.9087L17.5146 21.0894H14.707C14.2693 21.0894 13.916 20.7365 13.916 20.3003C13.9162 19.8643 14.2694 19.5122 14.707 19.5122H18.0029C18.3034 19.5123 18.5772 19.6808 18.709 19.9487L20.4922 23.5034L22.5264 17.4214L22.5225 17.4204C22.628 17.1211 22.8964 16.9054 23.2178 16.8843ZM28.8662 16.6743C29.056 17.0632 28.8925 17.5358 28.4971 17.7251C28.1069 17.9142 27.6323 17.7519 27.4424 17.3579L28.8662 16.6743ZM17.4961 4.58154C17.7914 4.33979 18.2139 4.33979 18.5039 4.58154L18.0029 5.19092H17.9971L17.4961 4.58154Z" fill="#00529A"/>
</svg>
