<svg width="36" height="36" viewBox="0 0 36 36" fill="none" xmlns="http://www.w3.org/2000/svg">
<mask id="mask0_704_4635" style="mask-type:luminance" maskUnits="userSpaceOnUse" x="0" y="0" width="36" height="36">
<path d="M18 36C27.9411 36 36 27.9411 36 18C36 8.05887 27.9411 0 18 0C8.05887 0 0 8.05887 0 18C0 27.9411 8.05887 36 18 36Z" fill="white"/>
</mask>
<g mask="url(#mask0_704_4635)">
<path d="M18 -1C7.51 -1 -1 7.51 -1 18H1C1 8.61 8.61 1 18 1V-1ZM18 1C27.39 1 35 8.61 35 18H37C37 7.51 28.49 -1 18 -1V1ZM35 18C35 27.39 27.39 35 18 35V37C28.49 37 37 28.49 37 18H35ZM18 35C8.61 35 1 27.39 1 18H-1C-1 28.49 7.51 37 18 37V35Z" fill="white"/>
</g>
<path d="M24.01 11.9402C23.7 11.6602 23.23 11.6802 22.95 11.9902C22.67 12.3102 22.69 12.7802 23 13.0602C23.31 13.3402 23.78 13.3202 24.06 13.0102C24.34 12.6902 24.32 12.2202 24.01 11.9402Z" fill="white"/>
<path d="M21.36 14.64C20.47 13.75 19.26 13.25 18 13.25C16.74 13.25 15.53 13.75 14.64 14.64C13.75 15.53 13.25 16.74 13.25 18C13.25 19.26 13.75 20.47 14.64 21.36C15.53 22.25 16.74 22.75 18 22.75C19.26 22.75 20.47 22.25 21.36 21.36C22.25 20.47 22.75 19.26 22.75 18C22.75 16.74 22.25 15.53 21.36 14.64ZM18 21.25C17.14 21.25 16.31 20.91 15.7 20.3C15.09 19.69 14.75 18.86 14.75 18C14.75 17.14 15.09 16.31 15.7 15.7C16.31 15.09 17.14 14.75 18 14.75C18.86 14.75 19.69 15.09 20.3 15.7C20.91 16.31 21.25 17.14 21.25 18C21.25 18.86 20.91 19.69 20.3 20.3C19.69 20.91 18.86 21.25 18 21.25Z" fill="white"/>
<path d="M25.82 9.93001C24.74 8.85001 23.28 8.25 21.75 8.25H13.75C12.22 8.25 10.76 8.86001 9.67999 9.93001C8.59999 11 8 12.47 8 14V22C8 23.53 8.60999 24.99 9.67999 26.07C10.75 27.15 12.22 27.75 13.75 27.75H21.75C23.27 27.75 24.74 27.14 25.82 26.07C26.9 25 27.5 23.53 27.5 22V14C27.5 12.47 26.89 11.01 25.82 9.93001ZM24.76 25.01C23.96 25.81 22.88 26.25 21.75 26.25H13.75C12.62 26.25 11.54 25.8 10.74 25.01C9.93999 24.22 9.5 23.13 9.5 22V14C9.5 12.87 9.94999 11.79 10.74 10.99C11.53 10.19 12.62 9.75 13.75 9.75H21.75C22.88 9.75 23.96 10.2 24.76 10.99C25.56 11.78 26 12.87 26 14V22C26 23.13 25.55 24.21 24.76 25.01Z" fill="white"/>
</svg>
