<svg width="20" height="20" viewBox="0 0 20 20" fill="none" xmlns="http://www.w3.org/2000/svg">
<path d="M15.077 11.8751C14.2771 11.0755 12.9733 11.0755 12.1695 11.8751L11.3536 12.6907C9.5499 11.8831 8.11813 10.4518 7.31026 8.64859L8.12613 7.83297C8.51407 7.44515 8.73003 6.92938 8.73003 6.38163C8.73003 5.83389 8.51807 5.31812 8.12613 4.9263L6.30243 3.10314C5.49856 2.30351 4.19477 2.30351 3.3949 3.10314L2.39906 4.09868C2.00713 4.48651 1.74317 4.97428 1.63119 5.50204C1.01529 7.85296 2.60703 11.4353 5.58654 14.4139C8.10613 16.9368 11.1056 18.5001 13.4093 18.5001C13.4213 18.5001 13.4293 18.5001 13.4413 18.5001C13.8012 18.5001 14.1571 18.4561 14.4971 18.3681C15.033 18.2522 15.5209 17.9883 15.9089 17.6005L16.9047 16.6049C17.2926 16.2171 17.5086 15.7013 17.5086 15.1536C17.5086 14.6059 17.2966 14.0901 16.9047 13.7023L15.081 11.8751H15.077ZM15.9809 15.6814L15.8409 15.5414L14.845 16.537C14.6531 16.7289 14.4091 16.8568 14.1292 16.9128C12.3015 17.3966 9.22595 15.9292 6.64637 13.3504C4.07079 10.7756 2.60703 7.69303 3.09095 5.84188C3.14294 5.586 3.27092 5.35011 3.45889 5.16619L4.45473 4.17065C4.67069 3.95475 5.02663 3.95475 5.2426 4.17065L7.0623 5.98582C7.27827 6.20172 7.27827 6.55755 7.0623 6.77345L5.89449 7.94092C5.69053 8.14482 5.62254 8.45268 5.71852 8.72456C6.67837 11.2914 8.70604 13.3144 11.2776 14.274C11.5496 14.37 11.8495 14.302 12.0575 14.0981L13.2253 12.9346C13.4413 12.7187 13.7972 12.7187 14.0132 12.9346L15.8369 14.7578C15.9409 14.8617 16.0008 15.0017 16.0008 15.1496C16.0008 15.2975 15.9449 15.4375 15.8369 15.5454L15.9769 15.6814H15.9809Z" fill="white"/>
<path d="M15.9249 4.08658C14.5611 2.66724 12.7294 1.75166 10.7657 1.50377C10.5618 1.48378 10.3698 1.54375 10.2138 1.67169C10.0578 1.79964 9.96186 1.97955 9.94586 2.17946C9.90586 2.59127 10.2098 2.9591 10.6177 2.99509C12.2295 3.20299 13.7332 3.96264 14.8611 5.1421C16.0329 6.26558 16.7927 7.76889 17.0007 9.37215C17.0367 9.75997 17.3567 10.0518 17.7446 10.0518H17.8206C18.2325 10.0119 18.5365 9.64803 18.4965 9.22822C18.2485 7.27712 17.3367 5.44996 15.9209 4.08259L15.9249 4.08658ZM15.7849 4.22652V4.21852L15.8609 4.14256L15.7809 4.22252L15.7849 4.22652Z" fill="white"/>
<path d="M13.9892 9.40039C14.0372 9.77222 14.3571 10.0481 14.7291 10.0521H14.7331C14.7691 10.0521 14.8011 10.0521 14.8331 10.0441C15.241 9.98812 15.529 9.61229 15.473 9.19649C15.077 6.80558 13.2053 4.93445 10.8137 4.53863C10.4138 4.47466 10.0378 4.74653 9.96986 5.14235V5.18233C9.93786 5.38224 9.98986 5.57815 10.1138 5.73408C10.2338 5.894 10.4098 5.99396 10.6058 6.02195C11.4496 6.15788 12.2375 6.56969 12.8334 7.18141C13.4493 7.77314 13.8612 8.56478 13.9932 9.40039H13.9892Z" fill="white"/>
</svg>
