<svg width="24" height="24" viewBox="0 0 24 24" fill="none" xmlns="http://www.w3.org/2000/svg">
<path d="M10.5 2.20703C14.9183 2.20703 18.5 5.78875 18.5 10.207C18.5 12.0724 17.8593 13.7869 16.7891 15.1475L21.2451 20.126C21.6132 20.5375 21.5784 21.1698 21.167 21.5381C20.7556 21.9063 20.1233 21.8712 19.7549 21.46L15.3652 16.5557C14.017 17.5904 12.3309 18.207 10.5 18.207C6.08172 18.207 2.5 14.6253 2.5 10.207C2.5 5.78875 6.08172 2.20703 10.5 2.20703ZM10.5 4.20703C7.18629 4.20703 4.5 6.89332 4.5 10.207C4.5 13.5207 7.18629 16.207 10.5 16.207C13.8137 16.207 16.5 13.5207 16.5 10.207C16.5 6.89332 13.8137 4.20703 10.5 4.20703Z" fill="white"/>
</svg>
