<svg width="36" height="36" viewBox="0 0 36 36" fill="none" xmlns="http://www.w3.org/2000/svg">
<path d="M6.5 12.9567V11.5072C6.50025 8.87445 8.59028 6.73993 11.1681 6.73968H11.5304C11.9358 6.73968 12.2644 7.07532 12.2644 7.48936C12.2644 7.90339 11.9358 8.23903 11.5304 8.23903H11.1681C9.40109 8.23929 7.96836 9.70252 7.96811 11.5072V12.9567C7.96811 14.1358 8.55023 15.2489 9.5165 15.8988L9.51841 15.9008L15.5868 20.0084C15.9247 20.2371 16.0172 20.7029 15.7932 21.048C15.5693 21.3929 15.1141 21.4872 14.7763 21.2588L8.7079 17.1502C7.32683 16.2206 6.5 14.6353 6.5 12.9567Z" fill="#00529A"/>
<path d="M12.4765 7.48081C12.4748 7.48154 12.474 7.4824 12.4736 7.48276C12.4733 7.48312 12.4724 7.48395 12.4717 7.48569C12.4709 7.4878 12.4708 7.48959 12.4708 7.48959L12.4717 7.4935C12.4724 7.49514 12.4733 7.49607 12.4736 7.49642C12.4741 7.49682 12.4751 7.49778 12.4765 7.49838C12.4785 7.49917 12.4803 7.49935 12.4803 7.49935C12.4809 7.49928 12.4824 7.49912 12.4841 7.49838C12.4858 7.49764 12.4867 7.49678 12.487 7.49642C12.4874 7.49607 12.4882 7.49523 12.4889 7.4935L12.4899 7.48959L12.4889 7.48569C12.4883 7.48428 12.4874 7.48321 12.487 7.48276C12.4867 7.48241 12.4857 7.48152 12.4841 7.48081L12.4803 7.47983C12.4803 7.47983 12.4786 7.47996 12.4765 7.48081ZM13.9389 7.48959C13.9387 8.31195 13.2855 8.97906 12.4803 8.97918C11.7253 8.97918 11.1042 8.39278 11.0294 7.64187L11.0218 7.48959L11.0294 7.33731C11.104 6.58618 11.7252 6 12.4803 6L12.6294 6.00781C13.3647 6.08419 13.9389 6.71854 13.9389 7.48959Z" fill="#00529A"/>
<path d="M22.3948 12.9567V11.5072C22.3946 9.70236 20.9611 8.23903 19.1938 8.23903H18.8326C18.4271 8.23903 18.0985 7.90339 18.0985 7.48936C18.0985 7.07532 18.4271 6.73968 18.8326 6.73968H19.1938C21.7719 6.73968 23.8627 8.87429 23.8629 11.5072V12.9567C23.8629 14.6356 23.0355 16.2196 21.6541 17.1493L21.655 17.1502L15.5867 21.2588C15.2488 21.4873 14.7936 21.3929 14.5697 21.048C14.3457 20.7029 14.4382 20.2371 14.7761 20.0084L20.8436 15.9008L20.8464 15.8988C21.8126 15.2489 22.3948 14.1357 22.3948 12.9567Z" fill="#00529A"/>
<path d="M17.8693 7.48081C17.8676 7.48154 17.8668 7.4824 17.8665 7.48276C17.8661 7.48312 17.8653 7.48395 17.8646 7.48569C17.8637 7.4878 17.8636 7.48959 17.8636 7.48959L17.8646 7.4935C17.8653 7.49514 17.8661 7.49608 17.8665 7.49642C17.8669 7.49682 17.868 7.49778 17.8693 7.49838C17.8713 7.49917 17.8732 7.49935 17.8732 7.49935C17.8737 7.49928 17.8753 7.49912 17.877 7.49838C17.8787 7.49764 17.8795 7.49679 17.8799 7.49642C17.8802 7.49606 17.881 7.49523 17.8818 7.4935L17.8827 7.48959L17.8818 7.48569C17.8812 7.48428 17.8802 7.48321 17.8799 7.48276C17.8795 7.48241 17.8786 7.48152 17.877 7.48081L17.8732 7.47983C17.8732 7.47983 17.8714 7.47996 17.8693 7.48081ZM19.3317 7.48959C19.3316 8.31196 18.6784 8.97906 17.8732 8.97918C17.1182 8.97918 16.4971 8.39277 16.4223 7.64187L16.4146 7.48959L16.4223 7.33731C16.4968 6.58619 17.118 6 17.8732 6L18.0223 6.00781C18.7575 6.08419 19.3317 6.71853 19.3317 7.48959Z" fill="#00529A"/>
<path d="M25.7678 20.6251C25.7661 20.6259 25.7652 20.6267 25.7649 20.6271C25.7645 20.6274 25.7637 20.6283 25.763 20.63C25.7622 20.6321 25.762 20.6339 25.762 20.6339L25.763 20.6378C25.7637 20.6395 25.7646 20.6404 25.7649 20.6408C25.7653 20.6412 25.7664 20.6421 25.7678 20.6427C25.7698 20.6435 25.7716 20.6437 25.7716 20.6437C25.7721 20.6436 25.7737 20.6434 25.7754 20.6427C25.7771 20.642 25.7779 20.6411 25.7783 20.6408C25.7786 20.6404 25.7795 20.6396 25.7802 20.6378L25.7811 20.6339L25.7802 20.63C25.7796 20.6286 25.7787 20.6275 25.7783 20.6271C25.7779 20.6267 25.777 20.6259 25.7754 20.6251L25.7716 20.6242C25.7716 20.6242 25.7698 20.6243 25.7678 20.6251ZM27.2301 20.6339C27.23 21.4563 26.5768 22.1234 25.7716 22.1235C25.0166 22.1235 24.3955 21.5371 24.3207 20.7862L24.313 20.6339L24.3207 20.4816C24.3953 19.7305 25.0164 19.1443 25.7716 19.1443L25.9207 19.1521C26.6559 19.2285 27.2301 19.8629 27.2301 20.6339Z" fill="#00529A"/>
<path d="M28.0319 20.6333C28.0317 19.3515 27.0232 18.3249 25.7619 18.3247C24.5004 18.3247 23.4911 19.3514 23.4909 20.6333C23.4909 21.3921 23.8386 22.0522 24.3731 22.4635C24.6969 22.7127 24.7614 23.1832 24.5174 23.5139C24.2735 23.8444 23.8137 23.9102 23.4899 23.6612C22.5955 22.973 22.0228 21.8735 22.0228 20.6333C22.023 18.517 23.6959 16.8253 25.7619 16.8253C27.8277 16.8255 29.4998 18.5171 29.5 20.6333C29.5 21.8659 28.9262 22.9619 28.0386 23.6573C27.7169 23.9094 27.2559 23.8472 27.0092 23.5187C26.7626 23.1902 26.8233 22.7194 27.1449 22.4674C27.6861 22.0433 28.0319 21.3797 28.0319 20.6333Z" fill="#00529A"/>
<path d="M14.4376 23.902V20.6437C14.4376 20.2296 14.7662 19.894 15.1716 19.894C15.577 19.894 15.9057 20.2296 15.9057 20.6437V23.902C15.9057 26.4266 17.9356 28.5004 20.4075 28.5006H20.5356C23.0074 28.5004 25.0374 26.4266 25.0374 23.902V22.0034C25.0374 21.5894 25.366 21.2538 25.7714 21.2538C26.1768 21.2538 26.5055 21.5894 26.5055 22.0034V23.902C26.5055 27.2547 23.8182 29.9997 20.5356 30H20.4075C17.1248 29.9998 14.4376 27.2547 14.4376 23.902Z" fill="#00529A"/>
</svg>
