<svg width="566" height="441" viewBox="0 0 566 441" fill="none" xmlns="http://www.w3.org/2000/svg">
<g opacity="0.1">
<path d="M425.379 43.4055L495.394 2.76196C504.82 -2.65718 516.938 0.0523923 522.324 9.53588L562.717 79.9847C568.103 89.4682 565.41 101.661 555.985 107.08L485.969 147.724C476.544 153.143 464.426 150.433 459.04 140.95L418.647 70.5012C411.914 61.0177 414.607 48.8246 425.379 43.4055Z" fill="#0098CC"/>
<path d="M410.735 261.856L480.473 221.623C489.86 216.258 501.93 218.94 507.295 228.328L547.528 298.065C552.892 307.453 550.21 319.523 540.822 324.887L471.085 365.12C461.697 370.485 449.627 367.803 444.263 358.415L404.03 288.678C398.665 279.29 401.348 267.22 410.735 261.856Z" fill="#0098CC"/>
<path d="M267.647 273.611L302.55 253.66C307.92 251 313.29 252.33 315.974 257.65L336.111 292.231C338.796 297.552 337.453 302.872 332.083 305.532L298.523 325.483C293.153 328.143 287.784 326.813 285.099 321.493L264.962 286.911C260.935 282.921 263.62 276.271 267.647 273.611Z" fill="#0098CC"/>
<path d="M14.5002 280.147L119.039 219.915C133.781 211.884 152.545 215.899 160.586 230.623L220.897 335.025C228.938 349.749 224.918 368.488 210.175 376.519L105.636 436.751C90.8938 444.782 72.1304 440.766 64.089 426.043L3.77823 321.64C-4.2632 306.917 1.09779 288.178 14.5002 280.147Z" fill="#0098CC"/>
</g>
</svg>
