<svg width="590" height="495" viewBox="0 0 590 495" fill="none" xmlns="http://www.w3.org/2000/svg">
<g opacity="0.1">
<path d="M112.31 48.7406L33.684 3.10144C23.0998 -2.98378 9.49149 0.0588321 3.44334 10.708L-41.9177 89.8159C-47.9658 100.465 -44.9418 114.157 -34.3575 120.242L44.2682 165.881C54.8525 171.966 68.4608 168.924 74.5089 158.275L119.87 79.1668C127.43 68.5176 124.406 54.8259 112.31 48.7406Z" fill="#0098CC"/>
<path d="M128.754 294.042L50.441 248.863C39.8988 242.84 26.3446 245.851 20.3205 256.393L-24.8602 334.702C-30.8843 345.243 -27.8722 358.797 -17.33 364.821L60.9831 409.999C71.5252 416.023 85.0794 413.011 91.1035 402.469L136.284 324.16C142.308 313.619 139.296 300.065 128.754 294.042Z" fill="#0098CC"/>
<path d="M289.439 307.241L250.244 284.838C244.214 281.851 238.184 283.345 235.169 289.319L212.556 328.151C209.541 334.125 211.048 340.099 217.078 343.086L254.766 365.489C260.796 368.476 266.826 366.983 269.841 361.009L292.454 322.177C296.976 317.696 293.961 310.228 289.439 307.241Z" fill="#0098CC"/>
<path d="M573.717 314.581L456.322 246.946C439.767 237.928 418.696 242.437 409.666 258.97L341.938 376.205C332.908 392.738 337.423 413.78 353.979 422.798L471.373 490.434C487.929 499.452 508.999 494.943 518.03 478.409L585.757 361.175C594.787 344.641 588.767 323.599 573.717 314.581Z" fill="#0098CC"/>
</g>
</svg>
